<svg width="1148" height="350" viewBox="0 0 1148 350" fill="none" xmlns="http://www.w3.org/2000/svg">
<rect width="1148" height="350" rx="25" fill="#D5D5D5"/>
<path d="M119.9 167.5H220.7V206.5H119.9V167.5ZM123.5 283H74.9V73H233.6V112H123.5V283ZM230.502 283V73H279.102V243.4H384.402V283H230.502ZM474.041 286.6C457.441 286.6 442.041 283.9 427.841 278.5C413.841 273.1 401.641 265.5 391.241 255.7C381.041 245.9 373.041 234.4 367.241 221.2C361.641 208 358.841 193.6 358.841 178C358.841 162.4 361.641 148 367.241 134.8C373.041 121.6 381.141 110.1 391.541 100.3C401.941 90.5 414.141 82.9 428.141 77.5C442.141 72.1 457.341 69.4 473.741 69.4C490.341 69.4 505.541 72.1 519.341 77.5C533.341 82.9 545.441 90.5 555.641 100.3C566.041 110.1 574.141 121.6 579.941 134.8C585.741 147.8 588.641 162.2 588.641 178C588.641 193.6 585.741 208.1 579.941 221.5C574.141 234.7 566.041 246.2 555.641 256C545.441 265.6 533.341 273.1 519.341 278.5C505.541 283.9 490.441 286.6 474.041 286.6ZM473.741 245.2C483.141 245.2 491.741 243.6 499.541 240.4C507.541 237.2 514.541 232.6 520.541 226.6C526.541 220.6 531.141 213.5 534.341 205.3C537.741 197.1 539.441 188 539.441 178C539.441 168 537.741 158.9 534.341 150.7C531.141 142.5 526.541 135.4 520.541 129.4C514.741 123.4 507.841 118.8 499.841 115.6C491.841 112.4 483.141 110.8 473.741 110.8C464.341 110.8 455.641 112.4 447.641 115.6C439.841 118.8 432.941 123.4 426.941 129.4C420.941 135.4 416.241 142.5 412.841 150.7C409.641 158.9 408.041 168 408.041 178C408.041 187.8 409.641 196.9 412.841 205.3C416.241 213.5 420.841 220.6 426.641 226.6C432.641 232.6 439.641 237.2 447.641 240.4C455.641 243.6 464.341 245.2 473.741 245.2ZM632.666 235L629.966 178.9L730.466 73H784.466L693.866 170.5L666.866 199.3L632.666 235ZM589.166 283V73H637.466V283H589.166ZM732.866 283L658.166 191.5L689.966 157L789.566 283H732.866ZM811.909 283V197.2L823.009 226.6L730.609 73H782.209L853.009 190.9H823.309L894.409 73H942.109L849.709 226.6L860.509 197.2V283H811.909Z" fill="#607D8B"/>
<path d="M948 135L1098 135V75L948 75V135Z" fill="#F44336"/>
<path d="M948 190H1098V140H948V190Z" fill="#4CAF50"/>
<path d="M948 220H1098V195H948V220Z" fill="#2196F3"/>
<path d="M948 275H1098V225H948V275Z" fill="#FF9800"/>
</svg>
